<?xml version="1.0" encoding="UTF-8" standalone="no"?>
<!-- Created with Inkscape (http://www.inkscape.org/) -->

<svg
   width="560"
   height="350"
   viewBox="0 0 148.16666 92.604166"
   version="1.1"
   id="svg1"
   inkscape:version="1.4 (86a8ad7, 2024-10-11)"
   sodipodi:docname="logo.svg"
   xml:space="preserve"
   xmlns:inkscape="http://www.inkscape.org/namespaces/inkscape"
   xmlns:sodipodi="http://sodipodi.sourceforge.net/DTD/sodipodi-0.dtd"
   xmlns="http://www.w3.org/2000/svg"
   xmlns:svg="http://www.w3.org/2000/svg"><sodipodi:namedview
     id="namedview1"
     pagecolor="#ffffff"
     bordercolor="#000000"
     borderopacity="0.25"
     inkscape:showpageshadow="2"
     inkscape:pageopacity="0.0"
     inkscape:pagecheckerboard="0"
     inkscape:deskcolor="#d1d1d1"
     inkscape:document-units="mm"
     inkscape:zoom="2.0334082"
     inkscape:cx="243.43366"
     inkscape:cy="181.22284"
     inkscape:window-width="1920"
     inkscape:window-height="1009"
     inkscape:window-x="1912"
     inkscape:window-y="-7"
     inkscape:window-maximized="1"
     inkscape:current-layer="g3" /><defs
     id="defs1" /><g
     inkscape:label="Layer 1"
     inkscape:groupmode="layer"
     id="layer1"><g
       id="g3"
       transform="translate(1.2715657e-6,4.944398)"><text
         xml:space="preserve"
         style="font-style:normal;font-variant:normal;font-weight:normal;font-stretch:normal;font-size:20px;line-height:1;font-family:Ubuntu;-inkscape-font-specification:'Ubuntu, Normal';font-variant-ligatures:normal;font-variant-caps:normal;font-variant-numeric:normal;font-variant-east-asian:normal;text-align:start;writing-mode:lr-tb;direction:ltr;text-anchor:start;fill:#273033;fill-opacity:0.996078;stroke:#273033;stroke-width:0.0674687;stroke-linejoin:round;stroke-opacity:1"
         x="33.163322"
         y="73.9897"
         id="text1"><tspan
           sodipodi:role="line"
           id="tspan1"
           style="font-style:normal;font-variant:normal;font-weight:normal;font-stretch:normal;font-size:20px;font-family:Ubuntu;-inkscape-font-specification:'Ubuntu, Normal';font-variant-ligatures:normal;font-variant-caps:normal;font-variant-numeric:normal;font-variant-east-asian:normal;fill:#273033;fill-opacity:0.996078;stroke:#273033;stroke-width:0.0674687;stroke-opacity:1"
           x="33.163322"
           y="73.9897">Portfolio</tspan></text><g
         id="g2"
         transform="matrix(0.26458333,0,0,0.26458333,41.539583,-1.9661886)"><path
           class="st0"
           d="m 167.1,111 c 0,-24.2 -20.9,-43.5 -45.7,-40.7 -18.5,2.1 -33.6,16.9 -36,35.4 -1.5,11.5 1.9,22.2 8.3,30.4 7.3,9.4 11,21.2 11,33.2 v 1.7 h 42.8 v -1.7 c 0,-12.4 4.4,-24.2 11.7,-34.1 5,-6.8 7.9,-15.1 7.9,-24.2 z"
           id="XMLID_19_" /><path
           class="st1"
           d="m 146.2,182 h -40.4 c -3,0 -5.5,-2.4 -5.5,-5.5 v 0 c 0,-3 2.4,-5.5 5.5,-5.5 h 40.4 c 3,0 5.5,2.4 5.5,5.5 v 0 c 0,3 -2.5,5.5 -5.5,5.5 z"
           id="XMLID_18_" /><path
           class="st1"
           d="m 143.2,192.8 h -34.5 c -2.8,0 -5,-2.3 -5,-5 v -0.6 c 0,-2.8 2.3,-5 5,-5 h 34.5 c 2.8,0 5,2.3 5,5 v 0.6 c 0.1,2.7 -2.2,5 -5,5 z"
           id="XMLID_17_" /><path
           class="st1"
           d="m 111.8,195.4 v 0.1 c 0,4.5 3.6,8.1 8.1,8.1 h 12.2 c 4.5,0 8.1,-3.6 8.1,-8.1 v -0.1 c 0,-1.4 -1.2,-2.6 -2.6,-2.6 h -23.2 c -1.4,0 -2.6,1.2 -2.6,2.6 z"
           id="XMLID_16_" /><path
           class="st2"
           d="m 164,107.9 c 0,-24.2 -20.9,-43.5 -45.7,-40.7 -18.5,2.1 -33.6,16.9 -36,35.4 -1.5,11.5 1.9,22.2 8.3,30.4 7.3,9.4 11,21.2 11,33.2 v 1.7 h 42.8 v -1.7 c 0,-12.4 4.4,-24.2 11.7,-34.1 5,-6.8 7.9,-15.2 7.9,-24.2 z"
           id="XMLID_15_" /><path
           class="st2"
           d="m 140.1,189.6 h -34.5 c -2.8,0 -5,-2.3 -5,-5 V 184 c 0,-2.8 2.3,-5 5,-5 h 34.5 c 2.8,0 5,2.3 5,5 v 0.6 c 0,2.8 -2.2,5 -5,5 z"
           id="XMLID_14_" /><path
           class="st2"
           d="m 108.6,192.2 v 0.1 c 0,4.5 3.6,8.1 8.1,8.1 h 12.2 c 4.5,0 8.1,-3.6 8.1,-8.1 v -0.1 c 0,-1.4 -1.2,-2.6 -2.6,-2.6 h -23.2 c -1.4,0 -2.6,1.2 -2.6,2.6 z"
           id="XMLID_13_" /><ellipse
           class="st3"
           cx="102.1"
           cy="91.900002"
           id="XMLID_12_"
           rx="6.9000001"
           ry="11.8"
           transform="matrix(0.7723,0.6352,-0.6352,0.7723,81.5971,-43.9285)" /><polyline
           class="st4"
           id="XMLID_11_"
           points="132.1,130 123,167.1 114,130 " /><path
           class="st4"
           d="m 106.7,125.5 c 4.1,0 4.1,3.4 8.1,3.4 4.1,0 4.1,-3.4 8.1,-3.4 4.1,0 4.1,3.4 8.1,3.4 4.1,0 4.1,-3.4 8.1,-3.4"
           id="XMLID_10_" /><line
           class="st2"
           id="XMLID_9_"
           x1="123"
           x2="123"
           y1="56.5"
           y2="40.799999" /><line
           class="st2"
           id="XMLID_8_"
           x1="150.89999"
           x2="158"
           y1="60.200001"
           y2="46.200001" /><line
           class="st2"
           id="XMLID_7_"
           x1="169.89999"
           x2="179.3"
           y1="75.900002"
           y2="69.699997" /><line
           class="st2"
           id="XMLID_6_"
           x1="176.7"
           x2="184.3"
           y1="97.800003"
           y2="96.599998" /><line
           class="st2"
           id="XMLID_5_"
           x1="95.099998"
           x2="88"
           y1="60.200001"
           y2="46.200001" /><line
           class="st2"
           id="XMLID_4_"
           x1="76.099998"
           x2="66.699997"
           y1="75.900002"
           y2="69.699997" /><line
           class="st2"
           id="XMLID_3_"
           x1="69.300003"
           x2="61.700001"
           y1="97.800003"
           y2="96.599998" /><path
           class="st2"
           d="m 143,178.8 h -40.4 c -3,0 -5.5,-2.4 -5.5,-5.5 v 0 c 0,-3 2.4,-5.5 5.5,-5.5 H 143 c 3,0 5.5,2.4 5.5,5.5 v 0 c 0,3.1 -2.5,5.5 -5.5,5.5 z"
           id="XMLID_2_" /></g></g></g><style
     type="text/css"
     id="style1">
	.st0{fill:#FCC12D;}
	.st1{fill:#46E6F2;}
	.st2{fill:none;stroke:#231F20;stroke-width:3;stroke-linecap:round;stroke-linejoin:round;stroke-miterlimit:10;}
	.st3{fill:#FFFFFF;}
	.st4{fill:none;stroke:#FFFFFF;stroke-width:3;stroke-linecap:round;stroke-linejoin:round;stroke-miterlimit:10;}
</style></svg>
